<?xml version="1.0" ?><svg data-name="Layer 1" id="Layer_1" viewBox="0 0 512 512" xmlns="http://www.w3.org/2000/svg"><path d="M214.82,430.49a5.83,5.83,0,0,0-5.82,5.83v53.73a5.83,5.83,0,1,0,11.65,0V436.32A5.83,5.83,0,0,0,214.82,430.49Z"/><path d="M297.45,430.49a5.83,5.83,0,0,0-5.83,5.83v53.73a5.83,5.83,0,0,0,11.66,0V436.32A5.83,5.83,0,0,0,297.45,430.49Z"/><path d="M445.84,279.69H432.13l.27-87.3c0-97.19-79.07-176.27-176.26-176.27S79.88,95.2,79.88,192.39v87.3H66.16a36.27,36.27,0,0,0-36.22,36.23V490.05a5.83,5.83,0,1,0,11.65,0V315.92a24.6,24.6,0,0,1,24.57-24.57H79.93c0,1.11-.05,2.23-.05,3.35a175.41,175.41,0,0,0,93.77,155.62v39.73a5.83,5.83,0,1,0,11.65,0v-65.4a58.5,58.5,0,0,1,58.42-58.43h24.83A58.49,58.49,0,0,1,327,424.65v65.4a5.83,5.83,0,1,0,11.65,0V450.32A175.39,175.39,0,0,0,432.4,294.7c0-1.12,0-2.24,0-3.35h13.48a24.6,24.6,0,0,1,24.57,24.57V490.05a5.83,5.83,0,1,0,11.65,0V315.92A36.27,36.27,0,0,0,445.84,279.69Zm-354.3,15c0-88.82,70.7-161.41,158.77-164.5v47.33A117.46,117.46,0,0,0,138.83,294.7,116.15,116.15,0,0,0,173.65,378v59A163.74,163.74,0,0,1,91.54,294.7Zm82.11,44.49v21.43a105.42,105.42,0,0,1,0-131.86Zm82.49,15.37a29.44,29.44,0,1,1,29.44-29.43A29.46,29.46,0,0,1,256.14,354.56Zm27,1.53a41.09,41.09,0,1,0-54,0A70.27,70.27,0,0,0,185.3,386V216.38a105.46,105.46,0,0,1,141.67,0V386A70.25,70.25,0,0,0,283.12,356.09Zm55.5-127.34a105.35,105.35,0,0,1,0,131.86Zm0,208.25V378a116.16,116.16,0,0,0,34.84-83.28A117.48,117.48,0,0,0,262,177.53V130.2c84.89,3,153.62,70.5,158.5,154.9v.4a5.86,5.86,0,0,0,.08.94q.21,4.11.21,8.26A163.72,163.72,0,0,1,338.62,437ZM256.14,118.43c-75,0-139.19,47.09-164.6,113.25V192.39c0-90.77,73.84-164.61,164.6-164.61s164.61,73.84,164.61,164.6l-.12,39C395.13,165.37,331,118.43,256.14,118.43Z"/><path d="M451.25,457.36H404.81a5.83,5.83,0,1,0,0,11.65h46.44a5.83,5.83,0,1,0,0-11.65Z"/><path d="M451.25,430.49H417.38a5.83,5.83,0,0,0,0,11.66h33.87a5.83,5.83,0,0,0,0-11.66Z"/></svg>